<svg xmlns="http://www.w3.org/2000/svg" xmlns:svg="http://www.w3.org/2000/svg" width="102" height="119"><g><title>protobuf.js</title><polygon id="background" fill="#FFF" points="51.039 5.185 97.658 32.723 97.61 86.277 51.055 113.814 4.467 86.734 4.448 32.418"/><path id="border" fill="#171C1E" d="m51.038,0l-51.038,29.833l0.021,59.5l51.034,29.667l51,-30.167l0.054,-58.666l-51.071,-30.167zm46.572,86.277l-46.556,27.537l-46.587,-27.08l-0.019,-54.316l46.591,-27.233l46.619,27.538l-0.048,53.554z"/><polygon id="blue_front" fill="#1EA8FF" points="91.721 49.529 67.825 63.597 67.812 97.283 91.811 83.15"/><polygon id="blue_side" fill="#50BFFF" points="82.002 43.789 91.721 49.529 67.825 63.597 67.812 97.283 56.695 90.821 56.785 58.97"/><polygon id="green_front" fill="#97FF27" points="78.73 35.486 78.741 41.718 52.8 57.367 52.829 91.787 46.798 95.33 46.777 54.64"/><polygon id="green_side" fill="#C2FF72" points="68.089 29.2 78.73 35.486 46.777 54.64 46.798 95.33 34.877 88.403 34.859 48.505"/><polygon id="red_front" fill="#FF274B" points="64.764 19.575 64.764 27.088 30.699 47.063 30.699 89.983 24.738 93.451 24.853 43.677"/><polygon id="red_side" fill="#FF5C77" points="51.736 11.831 10.809 35.674 10.801 85.302 24.82 93.451 24.853 43.677 64.805 19.575"/></g></svg>